<?xml version="1.0" encoding="UTF-8" standalone="no"?>
<svg
   width="52"
   height="52"
   viewBox="0 0 52 52"
   fill="none"
   style="user-select: auto;"
   version="1.1"
   id="svg1"
   xmlns="http://www.w3.org/2000/svg"
   xmlns:svg="http://www.w3.org/2000/svg">
  <g
     clip-path="url(#clip0_2046_4735)"
     id="g1"
     transform="translate(-10.48)">
    <path
       d="m 36,20.36 c 3.1152,0 5.6352,2.712 5.5152,5.8536 -0.1128,2.988 -2.6616,5.4264 -5.652,5.4264 h -3.9456 c -0.264,0 -0.48,-0.216 -0.48,-0.48 V 20.84 c 0,-0.264 0.216,-0.48 0.48,-0.48 h 4.08 M 36,14 h -9.6 c -0.7944,0 -1.44,0.6456 -1.44,1.44 v 21.12 c 0,0.7944 0.6456,1.44 1.44,1.44 H 36 C 42.6264,38 48,32.6264 48,26 48,19.3736 42.6264,14 36,14 Z"
       fill="#273552"
       id="path1" />
  </g>
</svg>
